<svg fill="none" height="168" viewBox="0 0 413 168" width="413" xmlns="http://www.w3.org/2000/svg" xmlns:xlink="http://www.w3.org/1999/xlink"><clipPath id="a"><path d="m0 0h412.76v167.91h-412.76z"/></clipPath><g clip-path="url(#a)"><path d="m179.37 89.5801c-4.61 11.2799-26.58 27.4399-37.63 27.4399 0 0-4.03 8.42-12.49 22.95-2.19 3.75-2.11 14.56-2.11 14.56s12.23-3.16 13.41 10.66h-23.49l-15.01-33.14" stroke="#000" stroke-linecap="round" stroke-linejoin="round" stroke-miterlimit="10" stroke-width="2"/><path d="m142.92 91.7498c-1.97 39.8802-33.56 33.9602-33.56 33.9602l-15.0002 13.03.79 13.82c13.4302.39 15.7902 12.64 15.7902 12.64h-27.2502s-13.62-24.83-13.43-33.96c.18-8.69 12.24-24.48 12.24-24.48s-85.73997 2.47-81.33997 0c11.23997-6.3 42.98997-20.6002 77.56997-28.4202 34.9402-7.9 62.7602-35.14 65.7602-35.94 5.92-1.58 14.21-23.3 22.11-35.93003 7.9-12.63 30.01.39 48.57 1.97 18.56 1.58003 17.77 21.32003 17.77 21.32003s1.21 18.79-41.46 13.82l-10.27 11.45s1.48 15.4.44 25.6" stroke="#000" stroke-linecap="round" stroke-linejoin="round" stroke-miterlimit="10" stroke-width="2"/><path d="m251.59 115.78c8 8-3.43 51.13-3.43 51.13h-14.1s-3.3-20.83-3.62-24.87c-.76-9.72-9.38-31.73-9.34-46.7899.01-3.51 2.67-15.25 24.78-28.21s60.6-3.43 60.6-3.43c29.73-9.53 38.12 12.58 38.12 12.58s5.69 18.71 4.26 53.5899c-1.43 34.88-8.97 30.55-20.98 33.41l.86-7.43s9.48.18 9.76-8.11c.29-8.29-3.59-35.97-3.59-35.97" stroke="#000" stroke-linecap="round" stroke-linejoin="round" stroke-miterlimit="10" stroke-width="2"/><path d="m315.91 67.4199s-11.72-2.29-11.15 10.86-1.16 17.44 5.56 17.72c6.73.29 8.44-4.86 8.44-4.86" stroke="#000" stroke-linecap="round" stroke-linejoin="round" stroke-miterlimit="10" stroke-width="2"/><path d="m305.9 111.68s4.02 29.87 4.57 55.23h-14.01s-8.48-28.95-10.01-49.51" stroke="#000" stroke-linecap="round" stroke-linejoin="round" stroke-miterlimit="10" stroke-width="2"/><path d="m294.41 163.19h-11.94s-4.95-23.18-4.57-39.12" stroke="#000" stroke-linecap="round" stroke-linejoin="round" stroke-miterlimit="10" stroke-width="2"/><path d="m285.56 120.31s-7.16 6.33-30.46 5.45" stroke="#000" stroke-linecap="round" stroke-linejoin="round" stroke-miterlimit="10" stroke-width="2"/><path d="m259.88 125.85v37.34h-10.93" stroke="#000" stroke-linecap="round" stroke-linejoin="round" stroke-miterlimit="10" stroke-width="2"/><path d="m334.9 111.68s-19.56 5.72-28.99 0" stroke="#000" stroke-linecap="round" stroke-linejoin="round" stroke-miterlimit="10" stroke-width="2"/><path d="m333.35 91.5899c1.514 0 2.74-1.2268 2.74-2.74 0-1.5133-1.226-2.74-2.74-2.74-1.513 0-2.74 1.2267-2.74 2.74 0 1.5132 1.227 2.74 2.74 2.74z" fill="#000"/><path d="m198.6 20.71c1.514 0 2.74-1.2268 2.74-2.74 0-1.5133-1.226-2.74-2.74-2.74-1.513 0-2.74 1.2267-2.74 2.74 0 1.5132 1.227 2.74 2.74 2.74z" fill="#000"/><g stroke="#000" stroke-linecap="round" stroke-linejoin="round" stroke-miterlimit="10"><path d="m221.73 91.5898s-6.28 5.03-5.24 26.0102" stroke-width="2"/><path d="m337.6 106.65s4.79 14.83 6.7 14.99-6.38 2.07-10.37-13.88z" stroke-width="2"/><path d="m181.94 67.12s15.34-4.38 16.54 5.85-6.92 3.31-7.37 0-9.09 1.74-9.09 1.74" stroke-width="2"/><path d="m172.48 78.3301s13.5 2.36 13.2 9.73-2.97 6.28-3.74 4.51c-.95-2.16-4.31-6.32-12.73-6.42" stroke-width="2"/><path d="m372.71 157.64s-.32 2.2.91 2.1c1.24-.09.51-1.89.51-1.89" stroke-width=".75"/><path d="m365.91 163.51s.98 1.09 5.4-.17c0 0 .69 3.76 1.6 3.76 1 .01.7-3.18.65-4.25-.03-.8-.5-2.06 2.17-2.33 1.15-.12 2.94-1.51 1.92-2.02-1.07-.54-1.46-2.34-3.76-2.25-1.97.08-2.4 2.6-3.38 2.52-1.68-.15-4.96.91-4.96.91s-1.95-.92-2.17-.49 1.05 1.46 1.05 1.46-.08 3.49.35 5.64c.34 1.7 1.62.81 1.67-.23.05-1.07.15-2.02.15-2.02" stroke-width=".75"/><path d="m375.56 158.49c.149 0 .27-.121.27-.27s-.121-.27-.27-.27-.27.121-.27.27.121.27.27.27z" stroke-width=".75"/><path d="m377.36 158.31s.09 1.01.48.94c.39-.06-.48-.94-.48-.94z" stroke-width=".75"/><path d="m366.41 166.32c0-.02.46.31.58-.15s.3-2.01.12-2.26" stroke-width=".75"/><path d="m370.48 163.56s.15 3.16.75 3.03.24-2.51.24-2.51" stroke-width=".75"/><path d="m24.9502 95.6201s.8 2.9 0 5.2299" stroke-width="2"/><path d="m34.2998 91.9199s.7 5.65 0 6.32" stroke-width="2"/><path d="m46.3896 87.5601s1.71 6.53.81 7.52" stroke-width="2"/><path d="m57.3096 84.04s1.42 6.98 1.03 9.57" stroke-width="2"/><path d="m68.9805 80.73s1.73 3.54 1.19 8.86" stroke-width="2"/><path d="m98.4403 45.2799s-25.61 3.18-33.91-16.42" stroke-width="2"/></g><path d="m48.3102 10.6698c.7 3.42 1.39 6.83 2.09 10.25.19.95 1.64.55 1.45-.4-.7-3.42-1.39-6.83-2.09-10.25-.2-.95003-1.64-.55003-1.45.4z" fill="#000"/><path d="m49.5699 11.3498c.11-.08.21-.15.33-.21.05-.03.21-.09.07-.04.07-.03.13-.05.2-.07.13-.04.25-.06.38-.09-.18.03.02 0 .07 0 .08 0 .16-.01.24 0 .06 0 .12.01.18.01.03 0 .06.01.09.01-.16-.01-.06-.01-.02 0 .14.03.28.06.41.1.06.02.11.04.17.06-.14-.05.02.01.07.03.13.06.25.14.36.22.03.02.05.03.07.05-.02-.02-.11-.1-.01 0 .04.04.09.08.13.12.05.05.1.1.14.15.02.02.04.05.06.07-.04-.05-.05-.07-.01-.01.07.11.13.23.2.35.05.09-.03-.11 0-.01.01.03.02.06.03.09.03.08.05.16.07.24.01.06.02.12.04.18-.03-.15 0 .01 0 .08.01.15 0 .29-.01.43 0 .03-.01.06-.01.09 0-.01.03-.13 0-.04-.02.07-.03.14-.04.21-.03.14-.08.28-.13.42 0-.01.05-.11.01-.03-.02.05-.04.09-.07.14-.03.06-.07.13-.11.19-.04.07-.1.14-.14.21s.01-.02.02-.03c-.03.03-.05.06-.08.1-.11.12-.23.24-.36.34.11-.09-.03.02-.08.04-.08.05-.16.1-.25.14-.36.18-.46.69-.27 1.03.22.37.66.45 1.03.27 1.42-.71 2.15-2.39 1.91-3.92-.24-1.59-1.64-2.63999-3.18-2.80999-.8-.09-1.67.12-2.32.59999-.32.24-.49.65-.27 1.03.24.31.75.51 1.08.26z" fill="#000"/><path d="m56.61 19.98c-.07-3-.04-6 .09-9-.43.18-.85.35-1.28.53 1.91 1.95 3.82 3.89 5.73 5.84.48.49 1.24.1 1.28-.53.14-2.37.28-4.73.42-7.1.06-.96-1.44-.96-1.5 0-.14 2.37-.28 4.73-.42 7.1.43-.18.85-.35 1.28-.53-1.91-1.95-3.82-3.89-5.73-5.84-.47-.48-1.25-.1-1.28.53-.13 3-.16 6-.09 9 .03.97 1.53.97 1.5 0z" fill="#000"/><path d="m67.7098 10.2301c-2.08.68-3.23 2.95-2.88 5.06.36 2.17 2.54 3.46 4.64 3.21 1.25-.15 2.37-.74 3.09-1.79.23-.33.06-.83-.27-1.03-.37-.22-.8-.07-1.03.27-.03.04-.05.08-.08.11.08-.1-.01.01-.04.04-.06.07-.12.14-.19.2-.03.02-.25.21-.14.13-.08.06-.17.12-.26.17s-.18.1-.27.15c-.04.02-.08.04-.13.06.03-.01.12-.04-.01 0-.2.07-.4.13-.6.17-.05.01-.29.04-.15.03-.09.01-.19.02-.28.02-.21.01-.42 0-.63-.02.14.02-.1-.02-.15-.03-.1-.02-.2-.05-.3-.08-.09-.03-.18-.06-.26-.09-.03-.01-.17-.07-.04-.02-.05-.02-.1-.05-.16-.08-.08-.04-.16-.09-.24-.14-.05-.03-.1-.06-.14-.09-.02-.01-.11-.09-.01-.01-.16-.13-.31-.28-.44-.44.09.1-.07-.11-.09-.13-.05-.08-.1-.16-.14-.24-.02-.03-.12-.27-.06-.13-.04-.11-.08-.21-.11-.32-.02-.09-.04-.18-.06-.27-.03-.14-.01-.04 0 0-.01-.06-.01-.11-.02-.17-.02-.21-.01-.41.01-.62 0-.02.02-.17.01-.07-.01.09.01-.05.01-.07.02-.1.04-.2.07-.3.02-.09.05-.18.08-.27.01-.04.03-.09.05-.13.01-.03.09-.21.03-.08.09-.2.2-.39.32-.57.03-.04.05-.08.08-.11.05-.07-.06.06.03-.04.07-.09.15-.17.23-.25s.17-.16.25-.23c-.02.02-.11.07.01-.01.06-.04.11-.08.17-.11.09-.05.18-.1.27-.15.03-.02.17-.07.04-.02.06-.03.13-.05.2-.07.38-.13.63-.52.52-.92-.12-.37-.55-.65-.93-.52z" fill="#000"/><path d="m68.9199 14.01c1.23.02 2.47.04 3.7.07-.24-.32-.48-.63-.72-.95-.62 2.56-.69 5.19-.26 7.78.07.4.56.62.92.52.42-.12.59-.52.52-.92-.39-2.32-.29-4.7.26-6.98.12-.48-.22-.94-.72-.95-1.23-.02-2.47-.04-3.7-.07-.97-.02-.97 1.48 0 1.5z" fill="#000"/><path d="m277.87 47.7499s-5.16-16.25 7.22-24.37" stroke="#000" stroke-linecap="round" stroke-linejoin="round" stroke-miterlimit="10" stroke-width="2"/><path d="m293.24 10.6999c-2.6.29-4.27 2.6-4.7 5.05-.23 1.34-.25 2.98.53 4.15.77 1.15 2.19 1.62 3.52 1.46 1.78-.21 3.15-1.4 4.43-2.56.71-.65-.35-1.71-1.06-1.06-1.04.95-2.25 2.11-3.75 2.15-.58.02-1.19-.11-1.64-.51-.5-.45-.63-1.18-.66-1.82-.12-2.07.9-5.09 3.32-5.36.4-.04.75-.31.75-.75.01-.38-.34-.8-.74-.75z" fill="#000"/><path d="m293.59 16.4c1.26-.04 2.52-.08 3.78-.11-.22-.38-.43-.75-.65-1.13-1.15 1.87-1.42 4.25-.69 6.32.13.38.51.64.92.52.37-.1.66-.54.52-.92-.61-1.72-.43-3.6.54-5.16.29-.48-.08-1.15-.65-1.13-1.26.04-2.52.08-3.78.11-.4.01-.75.34-.75.75.01.39.35.76.76.75z" fill="#000"/><path d="m299.55 11.0201v7.42c0 .97 1.5.97 1.5 0 0-2.47 0-4.94 0-7.42 0-.96-1.5-.97-1.5 0z" fill="#000"/><path d="m304.54 11.0601h3.89c.39 0 .77-.34.75-.75-.02-.41004-.33-.75004-.75-.75004-1.3 0-2.59 0-3.89 0-.39 0-.77.34-.75.75004.02.41.33.75.75.75z" fill="#000"/><path d="m304.52 10.3198c-.18 2.67-.07 5.33.31 7.98.06.4.57.62.92.52.43-.12.58-.52.52-.92-.35-2.51-.43-5.05-.25-7.58.03-.39998-.36-.74998-.75-.74998-.43 0-.72.34-.75.74998z" fill="#000"/><path d="m306.31 14.6599c1.53-.15 3.06-.29 4.58-.44.39-.04.77-.32.75-.75-.02-.37-.33-.79-.75-.75-1.53.15-3.06.29-4.58.44-.39.04-.77.32-.75.75.02.37.33.79.75.75z" fill="#000"/><path d="m382.81 146.53s9.89-4.22 10.6-12.46" stroke="#000" stroke-linecap="round" stroke-linejoin="round" stroke-miterlimit="10" stroke-width="1.5"/><path d="m381.43 120.6c.45 2.06.77 4.13.95 6.23.06.68.76.94 1.28.53.96-.76 2.18-1.11 3.39-1.05.41.02.75-.36.75-.75 0-.42-.34-.73-.75-.75-1.63-.07-3.19.48-4.45 1.49.43.18.85.35 1.28.53-.2-2.23-.53-4.44-1-6.63-.09-.4-.55-.63-.92-.52-.42.11-.62.52-.53.92z" fill="#000"/><path d="m388.22 119.69c0 .07 0 .14-.01.22 0 .05-.01.1-.01.14 0-.02.02-.11 0-.02-.04.16-.07.33-.11.49-.09.36-.17.71-.21 1.08-.06.6.08 1.22.42 1.72.67.99 1.87 1.56 3.06 1.33 1.08-.21 1.9-1.21 2.08-2.27.21-1.19-.25-2.33-1.3-2.97-1.15-.7-2.61-.59-3.88-.38-.39.06-.64.56-.52.92.14.42.51.59.92.52.12-.02.23-.04.35-.05-.2.03 0 0 .04 0 .06-.01.12-.01.18-.02.24-.02.48-.03.72-.03.1 0 .2 0 .3.01.06 0 .12.01.18.01.05 0 .22-.01.03 0 .21-.01.46.1.66.17.17.05-.09-.06 0 0 .04.02.08.04.12.06.1.05.19.11.28.17.15.1-.11-.11.02.02.03.03.06.05.08.08.04.04.08.08.12.12.03.03.05.06.07.09-.07-.09-.08-.1-.03-.03.04.07.08.14.12.21.08.15-.05-.16 0 0 .01.05.03.09.04.14s.02.09.03.14c.03.17-.02.01 0-.01-.02.01.01.26.01.3 0 .05-.01.1-.01.15-.01.17.04-.17 0 0-.02.08-.03.16-.06.24-.01.05-.03.1-.05.14-.01.02-.01.03-.02.05-.03.08-.02.06.02-.04.02.02-.13.24-.14.26-.03.04-.05.08-.08.12-.09.14.11-.12 0 0-.06.06-.11.12-.17.17-.01.01-.02.02-.04.03-.06.05-.05.04.04-.03 0 .01-.11.07-.12.08-.04.03-.09.05-.13.07-.14.08.15-.05 0 0-.04.01-.28.11-.31.08.03 0 .06-.01.1-.01-.03 0-.07.01-.1.01s-.07 0-.1 0c-.05 0-.1 0-.16-.01-.18 0 .17.04-.01 0-.11-.02-.22-.05-.33-.09-.04-.01-.09-.03-.12-.05.17.1.02.01-.01-.01-.1-.05-.18-.11-.27-.17-.04-.03-.11-.04.02.02-.04-.02-.09-.07-.12-.1-.04-.04-.08-.07-.11-.11s-.2-.18-.05-.05c-.07-.06-.13-.18-.17-.27-.02-.04-.06-.1-.07-.14.04.2 0-.02-.01-.07-.01-.03-.02-.07-.03-.1s-.01-.07-.02-.1c.01.11.02.13.01.04 0-.07-.01-.13 0-.2 0-.03.03-.31.01-.16.09-.67.34-1.29.34-1.97 0-.39-.34-.77-.75-.75-.4.08-.74.39-.74.81z" fill="#000"/><path d="m394.11 119.27h4c.39 0 .77-.34.75-.75s-.33-.75-.75-.75c-1.33 0-2.67 0-4 0-.39 0-.77.34-.75.75s.33.75.75.75z" fill="#000"/><path d="m395.74 118.52c-.14 1.96-.04 3.91.25 5.85.06.4.57.62.92.52.43-.12.58-.52.52-.92-.27-1.8-.32-3.63-.19-5.45.03-.4-.36-.75-.75-.75-.43 0-.72.35-.75.75z" fill="#000"/><path d="m399.06 120.45h3.77c.39 0 .77-.34.75-.75s-.33-.75-.75-.75c-1.26 0-2.51 0-3.77 0-.39 0-.77.34-.75.75s.33.75.75.75z" fill="#000"/><path d="m400.66 119.93v4c0 .39.34.77.75.75s.75-.33.75-.75c0-1.33 0-2.67 0-4 0-.39-.34-.77-.75-.75-.4.02-.75.33-.75.75z" fill="#000"/><path d="m404.92 117.58c-.12 1.97-.08 3.94.14 5.89.04.4.31.75.75.75.37 0 .79-.34.75-.75-.21-1.96-.26-3.93-.14-5.89.03-.4-.36-.75-.75-.75-.42 0-.72.35-.75.75z" fill="#000"/><path d="m408.48 119.26c1.09.11 2.2.02 3.26-.24.38-.09.65-.54.52-.92-.13-.4-.51-.62-.92-.52-.25.06-.49.11-.74.15-.06.01-.12.02-.17.03.2-.02-.02 0-.06.01-.13.01-.25.03-.38.03-.5.03-1.01.02-1.51-.03-.39-.04-.77.37-.75.75.02.43.33.7.75.74z" fill="#000"/><path d="m407.99 118.29c-.12 1.57-.08 3.15.11 4.72.05.39.31.77.75.75.37-.02.8-.33.75-.75-.19-1.57-.23-3.15-.11-4.72.03-.39-.37-.77-.75-.75-.43.02-.72.33-.75.75z" fill="#000"/><path d="m408.95 123.75h3.06c.39 0 .77-.34.75-.75s-.33-.75-.75-.75c-1.02 0-2.04 0-3.06 0-.39 0-.77.34-.75.75.02.4.33.75.75.75z" fill="#000"/><path d="m409.42 121.16h1.18c.19 0 .39-.08.53-.22.13-.13.23-.34.22-.53s-.07-.4-.22-.53-.33-.22-.53-.22c-.39 0-.78 0-1.18 0-.19 0-.39.08-.53.22-.13.13-.23.34-.22.53s.07.4.22.53.33.22.53.22z" fill="#000"/></g></svg>